<svg width="64" height="64" viewBox="0 0 64 64" fill="none" xmlns="http://www.w3.org/2000/svg">
  <!-- Fundo circular -->
  <circle cx="32" cy="32" r="30" stroke="#4A90E2" stroke-width="4" fill="#F4F6F8"></circle>

  <!-- Engrenagem central -->
  <circle cx="32" cy="32" r="8" stroke="#4A90E2" stroke-width="3" fill="#FFFFFF"></circle>
  <g stroke="#4A90E2" stroke-width="3">
    <line x1="32" y1="10" x2="32" y2="20"></line>
    <line x1="32" y1="44" x2="32" y2="54"></line>
    <line x1="10" y1="32" x2="20" y2="32"></line>
    <line x1="44" y1="32" x2="54" y2="32"></line>
    <line x1="19" y1="19" x2="25" y2="25"></line>
    <line x1="45" y1="45" x2="39" y2="39"></line>
    <line x1="19" y1="45" x2="25" y2="39"></line>
    <line x1="45" y1="19" x2="39" y2="25"></line>
  </g>

  <!-- Blocos que simbolizam módulos do ERP -->
  <rect x="8" y="8" width="12" height="12" rx="2" fill="#4A90E2"></rect>
  <rect x="44" y="8" width="12" height="12" rx="2" fill="#4A90E2"></rect>
  <rect x="8" y="44" width="12" height="12" rx="2" fill="#4A90E2"></rect>
  <rect x="44" y="44" width="12" height="12" rx="2" fill="#4A90E2"></rect>
</svg>
